<?xml version="1.0" encoding="UTF-8"?>
<svg version="1.1" xmlns="http://www.w3.org/2000/svg" width="1280" height="720">
<path d="M0 0 C1.98 0 3.96 0 6 0 C7.85770206 3.71540412 6.98817724 8.50194047 6.87304688 12.61523438 C6.80986805 16.89281281 7.01118632 20.09256606 9 24 C14.09806735 24.43355998 16.3770122 23.50538927 20.375 20.375 C21.3340625 19.6428125 22.293125 18.910625 23.28125 18.15625 C24.87195518 16.89465623 26.45775939 15.62675004 28.03125 14.34375 C35.13848867 8.6820514 43.68666961 3.41267286 53 4 C52.71349786 7.31196479 52.34284292 8.67739873 49.8828125 10.9921875 C48.97273438 11.61351562 48.06265625 12.23484375 47.125 12.875 C46.12726563 13.5659375 45.12953125 14.256875 44.1015625 14.96875 C41.26453766 16.82675115 38.39364195 18.60712653 35.5 20.375 C23.37781017 28.00556298 13.62511875 37.73539571 9.6953125 51.75390625 C5.63203434 72.5015657 9.11084581 94.06846389 20.77734375 111.68359375 C26.42328629 119.26924661 33.89185618 125.97905678 43 129 C43.99 129 44.98 129 46 129 C45.52910445 124.74542811 45.05610602 120.4911827 44.5703125 116.23828125 C43.30851104 105.11450522 42.19825099 93.9784823 41.11254883 82.83618164 C40.48056289 76.44565289 39.77809544 70.09827641 38.8125 63.75 C35.87922845 43.2415431 35.87922845 43.2415431 39 37 C39.99 37 40.98 37 42 37 C43.32 39.97 44.64 42.94 46 46 C50.15969367 45.80652588 51.66291722 45.34510856 54.625 42.3125 C56.21651729 40.20399302 57.59168598 38.05700047 59 35.8125 C61.13999622 32.80313031 62.63757181 31.47618798 66 30 C68.8125 29.8125 68.8125 29.8125 71 30 C72 33 72 33 71 35.6875 C68.94101652 39.09769139 66.62802264 41.77807923 63.98046875 44.73046875 C55.61418749 54.13272094 55.61418749 54.13272094 53 66 C55.29781554 66.11635105 55.29781554 66.11635105 58 65 C61.58506638 61.2323163 64.22857792 56.65058073 67.0625 52.3125 C70.50287968 47.10713388 74.24072626 42.66893173 80 40 C83.3125 39.8125 83.3125 39.8125 86 40 C85.49475028 44.37883089 82.78602813 46.78535216 80 50 C80 50.33 80 50.66 80 51 C85.08303686 51.11320856 85.08303686 51.11320856 90 50 C91.72795352 49.93197033 93.45835365 49.91504355 95.1875 49.9375 C96.08855469 49.94652344 96.98960938 49.95554687 97.91796875 49.96484375 C98.60503906 49.97644531 99.29210937 49.98804688 100 50 C99.63778956 52.58692146 99.33340132 53.71963435 97.30102539 55.42871094 C96.21035767 56.07501465 96.21035767 56.07501465 95.09765625 56.734375 C94.29432861 57.22172119 93.49100098 57.70906738 92.66333008 58.21118164 C91.80505615 58.7189917 90.94678223 59.22680176 90.0625 59.75 C88.31526934 60.82286093 86.57045127 61.89966131 84.828125 62.98046875 C83.98958984 63.50044434 83.15105469 64.02041992 82.28710938 64.55615234 C71.12059215 71.60555273 62.35842025 80.70985476 58.625 93.66015625 C55.9197223 108.11648395 57.42633882 127.83498355 65.66015625 140.3984375 C69.03232567 144.42931057 71.76857802 145.82408257 76.9375 146.5625 C81.55205605 146.27303405 84.75080507 144.18395537 88 141 C90.36282845 137.57553287 92.24255384 133.95560267 94.125 130.25 C95.1274049 128.33843716 96.13000692 126.42697767 97.1328125 124.515625 C97.61266602 123.59201172 98.09251953 122.66839844 98.58691406 121.71679688 C101.31827688 116.46548288 101.31827688 116.46548288 102.6796875 113.921875 C103.05593262 113.2112793 103.43217773 112.50068359 103.81982422 111.76855469 C105 110 105 110 108 108 C111.1875 107.875 111.1875 107.875 114 108 C115.24101883 111.52181019 115.05908094 112.86246469 113.55859375 116.35546875 C112.86034733 117.63763574 112.15271871 118.91472255 111.4375 120.1875 C108.30801191 126.13429219 105.57369544 132.10601981 103.3125 138.4375 C103.03269287 139.15768311 102.75288574 139.87786621 102.46459961 140.61987305 C100.71998341 145.7270537 101.14729823 149.055718 102.99389648 154.1003418 C105.69463955 159.19970646 111.89292936 161.05002758 117 163 C127.92709793 165.56688761 137.88721169 163.87764355 147.5 158.0625 C150.32237421 155.73404128 151.72575148 154.44796657 153 151 C153.24563589 142.80227208 150.2505017 135.86780386 147 128.5 C146.5359375 127.4171875 146.071875 126.334375 145.59375 125.21875 C143.3945544 120.06441155 143.3945544 120.06441155 141 115 C140.95977609 112.6670134 140.95679753 110.33293334 141 108 C143.5625 107.5 143.5625 107.5 147 108 C153.66545817 112.52298947 156.45862042 120.92921871 159.65014648 127.97753906 C162.90727565 135.07968652 166.36568193 141.57712129 173 146 C177.58552608 146.45103535 180.01053566 146.46563028 184.1875 144.5 C194.46195042 135.36715518 196.08320451 120.37030959 197.23828125 107.3046875 C197.56495902 96.61028877 195.070163 86.40961109 188.07421875 78.16015625 C187.38972656 77.44730469 186.70523438 76.73445313 186 76 C185.5265918 75.48131348 185.05318359 74.96262695 184.56542969 74.42822266 C179.8688339 69.45722213 174.64800424 65.8741164 168.875 62.25 C167.99457031 61.68667969 167.11414063 61.12335938 166.20703125 60.54296875 C162.17219605 57.96870738 158.11029903 55.45220313 154 53 C154.33 52.01 154.66 51.02 155 50 C161.95041086 49.73381405 168.23514355 50.3879491 175 52 C172.90855329 48.17770084 171.16653244 45.00820582 168 42 C168 41.34 168 40.68 168 40 C172.75109229 39.40611346 175.21521443 39.77070787 179.125 42.625 C184.79608329 47.2998119 188.47809495 52.61475751 192 59 C194.42177976 63.57769452 194.42177976 63.57769452 198.75 65.875 C199.4925 65.91625 200.235 65.9575 201 66 C201.64244357 56.41921107 194.59826327 49.53468936 188.625 42.6875 C187.34496094 41.27017578 187.34496094 41.27017578 186.0390625 39.82421875 C183.81851364 36.74863097 183.20610949 34.75878631 183 31 C183.33 30.67 183.66 30.34 184 30 C187.49142326 30 190.02757252 30.17850361 192.76171875 32.48828125 C195.47273716 35.55376696 197.22632146 37.92469329 198 42 C198.66 42 199.32 42 200 42 C200 42.66 200 43.32 200 44 C203.38717214 45.61780914 203.38717214 45.61780914 207.0625 45.8125 C209.15378148 45.16778016 209.15378148 45.16778016 210.046875 43.15234375 C210.39492188 42.05599609 210.39492188 42.05599609 210.75 40.9375 C211.11351562 39.83728516 211.11351562 39.83728516 211.484375 38.71484375 C211.65453125 38.14894531 211.8246875 37.58304687 212 37 C213.32 37 214.64 37 216 37 C218.70120787 46.16009003 216.70221882 56.11726568 215.125 65.3125 C213.47889348 75.53198834 212.49310592 85.67578009 211.9375 96 C211.31358357 107.5025689 210.16190654 118.68602245 208 130 C222.94784078 124.97577794 232.81593999 114.84400934 240 101 C243.85650434 92.41525077 245.83719906 84.39236214 246 75 C246.02707031 74.01257813 246.05414063 73.02515625 246.08203125 72.0078125 C246.12500108 68.99992431 246.07830782 66.00702033 246 63 C245.99484375 62.01 245.9896875 61.02 245.984375 60 C245.56376825 48.46335777 240.00379792 38.20642572 232 30 C224.8180948 23.77308356 217.09963024 18.62616193 208.875 13.88671875 C205.79409224 11.86487303 203.40995292 9.78650807 201 7 C201 6.01 201 5.02 201 4 C213.04006941 4.40133565 221.58515772 10.31028547 230.53125 17.9453125 C235.32126088 21.93193548 239.67247957 24.38268093 246 25 C247.38975182 20.11373884 247.0139409 15.22870833 246.87304688 10.19921875 C246.77016407 3.28791494 246.77016407 3.28791494 249 0 C250.65 0 252.3 0 254 0 C254.65489373 1.37070781 255.29844963 2.74683444 255.9375 4.125 C256.29714844 4.89070312 256.65679687 5.65640625 257.02734375 6.4453125 C258.87623845 11.30144556 259.12422122 16.12536984 259.11352539 21.28076172 C259.11344986 22.5015744 259.11337433 23.72238708 259.11329651 24.98019409 C259.10813522 26.28352692 259.10297394 27.58685974 259.09765625 28.9296875 C259.09578901 30.28874662 259.09436655 31.64780642 259.09336853 33.00686646 C259.08956748 36.56768686 259.07975802 40.12846587 259.06866455 43.68927002 C259.05839835 47.32929932 259.05385979 50.96933537 259.04882812 54.609375 C259.03813339 61.73960017 259.02108622 68.86979737 259 76 C262.27280031 72.88174636 263.80356326 70.58893859 265.25390625 66.28125 C265.63353516 65.18425781 266.01316406 64.08726562 266.40429688 62.95703125 C266.78650391 61.81621094 267.16871094 60.67539062 267.5625 59.5 C268.32820569 57.23739721 269.10010404 54.97687837 269.87890625 52.71875 C270.38272827 51.21731445 270.38272827 51.21731445 270.89672852 49.68554688 C271.98996768 47.02442034 273.02287606 45.08856805 275 43 C275.99 43 276.98 43 278 43 C282.92165294 52.84330589 276.66212185 69.96662561 273.52734375 79.78125 C263.0786016 110.49585444 245.88734389 135.2772458 216.45996094 149.82324219 C211.92957629 151.99041706 207.33720109 154.01914592 202.75 156.0625 C184.82806718 163.43584813 184.82806718 163.43584813 171.625 176.625 C170.87275335 179.07422721 170.87275335 179.07422721 171 182 C171.66644531 181.48050781 172.33289063 180.96101562 173.01953125 180.42578125 C183.33696305 172.61916502 192.6031536 168.70429297 205.2265625 166.625 C209.53236099 165.91182427 213.7502392 164.98655161 218 164 C219.57384283 169.92814134 217.89095621 173.75203727 215 179 C206.45336637 190.89096853 195.14550725 196.50715599 181.51953125 200.77734375 C175.89506721 202.82174693 173.27160969 205.43267229 170.47265625 210.703125 C163.72941244 225.79940558 159.64265854 240.74692624 157.5 257.125 C154.31540656 281.34782653 154.31540656 281.34782653 144.97265625 288.56640625 C136.58456919 294.04912237 126.75118724 294.39833298 117.0390625 292.38671875 C110.74501213 290.1886427 106.53868459 286.63358587 103 281 C98.9089448 272.42032624 97.33583113 263.38035339 96.35693359 254.00195312 C94.82290982 239.52076873 90.83902091 226.28828727 85 213 C84.66484375 212.03707031 84.3296875 211.07414063 83.984375 210.08203125 C82.33825847 206.250753 80.75133238 203.84909369 76.90820312 201.98583984 C72.65332336 200.29759698 68.33611881 198.95137094 63.9453125 197.66796875 C59.20589945 196.21586576 54.81559136 194.2215352 51 191 C51 190.34 51 189.68 51 189 C50.1646875 188.6596875 50.1646875 188.6596875 49.3125 188.3125 C43.16843862 184.82533003 39.05491334 179.00650302 36.75 172.4375 C36.10236421 169.46916927 35.81721351 167.01597708 36 164 C37.134375 164.268125 38.26875 164.53625 39.4375 164.8125 C42.58691389 165.53547866 45.68862733 166.09817779 48.890625 166.5546875 C62.64437936 168.52291361 74.032247 172.81555672 84 183 C83.86897422 177.75896863 81.92352554 174.84731587 78.47265625 171.1484375 C70.83015622 164.50803463 61.54728857 159.96472477 52.17578125 156.3125 C46.27498354 153.87379393 40.62546802 150.89327934 34.94506836 147.98461914 C33.61329301 147.31045697 32.27516122 146.64874711 30.93188477 145.99780273 C3.26790201 132.54944383 -10.60219893 104.04357905 -20.23388672 76.24414062 C-20.4867041 75.50357422 -20.73952148 74.76300781 -21 74 C-21.38285156 72.89140625 -21.76570313 71.7828125 -22.16015625 70.640625 C-24.74860667 61.92416872 -24.26998481 52.99949376 -24 44 C-22.515 43.505 -22.515 43.505 -21 43 C-17.93701047 45.55693039 -16.92039779 48.29583292 -15.5625 52 C-15.13324219 53.155 -14.70398437 54.31 -14.26171875 55.5 C-13.46643873 57.70610186 -12.67660778 59.91418295 -11.89453125 62.125 C-11.55808594 63.07375 -11.22164062 64.0225 -10.875 65 C-10.58367188 65.845625 -10.29234375 66.69125 -9.9921875 67.5625 C-9.02906092 70.10836175 -9.02906092 70.10836175 -7.3828125 72.6875 C-6 75 -6 75 -6 77 C-5.34 77 -4.68 77 -4 77 C-3.972474 74.56241991 -3.95291432 72.12516459 -3.9375 69.6875 C-3.92912109 69.01654297 -3.92074219 68.34558594 -3.91210938 67.65429688 C-3.89349989 63.69047649 -4.08545154 59.81916176 -4.48828125 55.875 C-5.15420808 49.02385452 -5.23347657 42.19233241 -5.25 35.3125 C-5.25167175 34.65413147 -5.25334351 33.99576294 -5.25506592 33.31744385 C-5.25870415 9.37421175 -5.25870415 9.37421175 0 0 Z " fill="#E4C590" transform="translate(31,227)"/>
<path d="M0 0 C21 0 21 0 25.734375 4.265625 C27.31420898 7.10888672 27.31420898 7.10888672 28.75 10.25 C29.94234602 12.46704177 31.13642681 14.68315123 32.33203125 16.8984375 C32.92580566 18.0647168 33.51958008 19.23099609 34.13134766 20.43261719 C36.91293163 25.83855635 40.15765213 30.9646492 43.35913086 36.12841797 C45.15961605 39.04457624 46.92732842 41.9804773 48.69921875 44.9140625 C53.01761932 52.04565397 57.37816832 59.15107013 61.75 66.25 C62.40540771 67.31460449 63.06081543 68.37920898 63.73608398 69.47607422 C67.13831752 74.99644532 70.56306066 80.50089706 74 86 C74.33 57.62 74.66 29.24 75 0 C81.6 0 88.2 0 95 0 C95 40.59 95 81.18 95 123 C73 123 73 123 68.5703125 119.3203125 C67.25854492 116.85668945 67.25854492 116.85668945 66.125 114.125 C65.1272637 112.1817588 64.12578693 110.24043475 63.12109375 108.30078125 C62.62206543 107.27033691 62.12303711 106.23989258 61.60888672 105.17822266 C58.82309383 99.67511919 55.47341792 94.52667168 52.1875 89.3125 C50.83583269 87.12146054 49.48690066 84.92873146 48.140625 82.734375 C47.46322266 81.63287109 46.78582031 80.53136719 46.08789062 79.39648438 C44.31000736 76.5043057 42.53288319 73.61166389 40.75627136 70.71870422 C39.67869749 68.96423316 38.60075993 67.2099861 37.52270508 65.45581055 C36.17805455 63.26762442 34.83408996 61.07901655 33.4909668 58.88989258 C32.87390869 57.88595459 32.25685059 56.8820166 31.62109375 55.84765625 C31.0892749 54.98148682 30.55745605 54.11531738 30.00952148 53.22290039 C27.04019993 48.4606584 24.01300626 43.73472412 21 39 C20.67 66.72 20.34 94.44 20 123 C13.4 123 6.8 123 0 123 C0 82.41 0 41.82 0 0 Z " fill="#FFFFFF" transform="translate(468,283)"/>
<path d="M0 0 C7.01569559 6.16571709 10.80213642 13.80131176 12 23 C12.76521515 36.24410835 11.50174192 46.52352585 3 57 C-0.97729319 61.22520036 -5.80637518 63.5822781 -11 66 C-6.70711762 72.84485441 -2.29902543 79.60911918 2.15234375 86.3515625 C2.97504257 87.59809601 2.97504257 87.59809601 3.81436157 88.86981201 C6.1091336 92.34539632 8.40496627 95.82027255 10.70336914 99.29345703 C12.39670645 101.85316943 14.08723372 104.41471849 15.77734375 106.9765625 C16.30222885 107.76809723 16.82711395 108.55963196 17.36790466 109.37515259 C17.84582962 110.10036102 18.32375458 110.82556946 18.81616211 111.57275391 C19.23917099 112.21242096 19.66217987 112.85208801 20.0980072 113.51113892 C21 115 21 115 21 116 C12.99620005 118.17363936 4.78086082 119.43371027 -3 116 C-11.38073307 108.8492285 -16.56223162 97.50512334 -21.7578125 87.98242188 C-24.40204311 83.1861392 -27.44592354 78.71988856 -30.58398438 74.23144531 C-32 72 -32 72 -32 70 C-37.61 69.67 -43.22 69.34 -49 69 C-49 84.51 -49 100.02 -49 116 C-55.6 116 -62.2 116 -69 116 C-69 76.4 -69 36.8 -69 -4 C-48.69451912 -10.76849363 -18.49106041 -12.53355327 0 0 Z M-49 11 C-49 24.2 -49 37.4 -49 51 C-36.63448646 52.76650193 -25.92788832 52.96394416 -14.625 47.3125 C-10.18593977 43.40189932 -8.30176754 39.74642368 -7.65234375 33.8359375 C-7.47072746 26.966104 -7.44521942 20.81015275 -12.359375 15.54296875 C-22.71727572 6.27958847 -36.44911309 8.71802056 -49 11 Z " fill="#FFFFFF" transform="translate(1032,290)"/>
<path d="M0 0 C6.93 0 13.86 0 21 0 C21 16.5 21 33 21 50 C33.54837822 50.54471016 33.54837822 50.54471016 37.98828125 44.53125 C39.13875849 42.54479515 40.24470337 40.53209525 41.3125 38.5 C41.93382812 37.44167969 42.55515625 36.38335937 43.1953125 35.29296875 C45.8717932 30.7284696 48.43692893 26.12053583 50.85302734 21.4140625 C61.13276557 1.41435776 61.13276557 1.41435776 67.94921875 -1.07861328 C74.74137795 -2.1218739 81.31178498 -1.42854225 88 0 C85.36342021 5.47971192 82.4839323 10.56212677 79.125 15.625 C78.15142086 17.11007247 77.17881488 18.59578324 76.20703125 20.08203125 C75.69092285 20.8704541 75.17481445 21.65887695 74.64306641 22.47119141 C71.66120854 27.06050548 68.74149412 31.68934548 65.8125 36.3125 C60.97098206 43.94275331 56.06378645 51.51496861 51 59 C55.80289973 67.43152638 60.90013739 75.59154488 66.25 83.6875 C67.00007168 84.82843363 67.74974129 85.96963169 68.49902344 87.11108398 C69.97997704 89.36680572 71.46222389 91.62165549 72.9453125 93.87597656 C75.72273615 98.09887498 78.49265214 102.32646825 81.25 106.5625 C81.66668945 107.19696045 82.08337891 107.8314209 82.51269531 108.48510742 C85.57631012 113.19802265 88.31880171 118.06069029 91 123 C70.99987159 125.48389462 70.99987159 125.48389462 65.171875 121.86474609 C62.00187814 118.41805769 60.33226763 114.03790139 58.42529297 109.81396484 C55.74240069 104.5171138 52.26577674 99.69053228 48.91644287 94.79849243 C47.3267605 92.47207696 45.75528521 90.13386832 44.19061279 87.79057312 C43.09996915 86.1634176 41.9942415 84.54640471 40.88818359 82.9296875 C39 80 39 80 37.80322266 77.4453125 C36.72866818 74.913953 36.72866818 74.913953 34 72 C29.71 71.67 25.42 71.34 21 71 C21 88.16 21 105.32 21 123 C14.07 123 7.14 123 0 123 C0 82.41 0 41.82 0 0 Z " fill="#FFFFFF" transform="translate(325,283)"/>
<path d="M0 0 C1.7644043 -0.01740234 1.7644043 -0.01740234 3.56445312 -0.03515625 C11.49041776 -0.00886781 18.3202862 1.18207782 25.9375 3.375 C25.9375 9.975 25.9375 16.575 25.9375 23.375 C24.225625 23.065625 22.51375 22.75625 20.75 22.4375 C3.93153694 19.70327033 -12.20667279 18.79059535 -27.0625 28.375 C-34.91707783 34.55839106 -38.18858488 43.81223358 -39.46875 53.42578125 C-40.84267645 67.21188416 -40.2695656 83.55830808 -31.12109375 94.75 C-19.98498323 105.58728823 -5.97156709 105.49799605 8.9375 106.375 C8.9375 92.515 8.9375 78.655 8.9375 64.375 C15.5375 64.375 22.1375 64.375 28.9375 64.375 C28.9375 83.845 28.9375 103.315 28.9375 123.375 C5.76861887 127.03324439 -19.12184369 129.71223428 -40 116.5 C-52.43884959 107.42424678 -58.73508363 95.64353485 -61.59521484 80.56689453 C-64.30828497 62.03466946 -63.80370981 39.45955276 -53.0625 23.375 C-39.21208711 5.59765012 -22.21698932 -0.21984926 0 0 Z " fill="#FFFFFF" transform="translate(643.0625,281.625)"/>
<path d="M0 0 C1.20785156 -0.020625 2.41570312 -0.04125 3.66015625 -0.0625 C11.74044636 -0.09729135 18.61278924 0.99147007 26.375 3.25 C26.375 9.85 26.375 16.45 26.375 23.25 C24.84875 22.940625 23.3225 22.63125 21.75 22.3125 C5.28903472 19.39031076 -12.23025624 18.3824581 -26.625 28.25 C-34.07459822 34.42870488 -36.97903468 42.93748255 -38.625 52.25 C-39.355892 63.19344656 -39.87917757 74.97367496 -35.625 85.25 C-35.35816406 85.96929687 -35.09132813 86.68859375 -34.81640625 87.4296875 C-32.03039843 93.9922837 -27.29087329 98.55568881 -20.8359375 101.5390625 C-10.57876977 105.38204448 -2.07490123 105.5764764 9.375 106.25 C9.375 92.39 9.375 78.53 9.375 64.25 C15.975 64.25 22.575 64.25 29.375 64.25 C29.375 83.72 29.375 103.19 29.375 123.25 C6.08818505 126.92686552 -19.19155508 129.69227444 -40 116 C-52.16299754 106.70826745 -58.53907156 94.70116631 -61.15625 79.66796875 C-63.7616519 58.60270226 -62.34441092 37.01447164 -49.5546875 19.3984375 C-36.452625 3.85441353 -19.45819929 0.08150031 0 0 Z " fill="#FFFFFF" transform="translate(911.625,281.75)"/>
<path d="M0 0 C1.14710449 0.00128906 2.29420898 0.00257813 3.47607422 0.00390625 C11.5655326 0.09581886 18.49060232 0.92499302 26.25 3.3125 C26.25 9.9125 26.25 16.5125 26.25 23.3125 C24.208125 22.8175 22.16625 22.3225 20.0625 21.8125 C13.48614564 20.39943614 7.03041406 19.98024766 0.3125 19.9375 C-0.99980591 19.91719727 -0.99980591 19.91719727 -2.33862305 19.89648438 C-8.37814317 19.93789428 -14.6196788 20.47378108 -19.31201172 24.72900391 C-23.41191782 29.44891711 -24.1662502 33.17280961 -23.75 39.3125 C-22.82361049 42.62103396 -21.8172108 44.5235868 -19.02734375 46.5859375 C-12.46807221 50.21840887 -5.24371601 52.01003931 1.91259766 54.08422852 C13.08420416 57.36561246 22.58819027 61.45195132 28.5625 72 C33.16412871 82.27432618 33.3562716 93.96559097 29.625 104.5 C26.07343145 112.54851866 20.20080799 118.55834829 12.25 122.3125 C-5.91653293 129.04397499 -25.65294635 127.34485122 -43.75 121.3125 C-43.75 114.7125 -43.75 108.1125 -43.75 101.3125 C-36.25 103.25 -36.25 103.25 -33.93945312 103.85522461 C-21.92014891 106.90772191 -7.2578507 108.95360328 4.25 103.3125 C7.69431512 100.12650852 9.26393054 96.88427657 10.25 92.3125 C10.35016032 86.65900627 9.20653085 83.50655843 5.25 79.3125 C-0.76204995 75.82985254 -7.48059353 74.06909733 -14.1875 72.4375 C-24.01825632 69.91679325 -33.9729014 65.89952209 -40.3828125 57.671875 C-46.19870651 47.63530362 -46.9761685 37.27095476 -44.5625 26.1875 C-42.05271288 17.05140576 -37.67638889 10.79147232 -29.4609375 5.96875 C-19.78608051 0.81681377 -10.8670251 -0.0503759 0 0 Z " fill="#FFFFFF" transform="translate(767.75,281.6875)"/>
<path d="M0 0 C6.93 0 13.86 0 21 0 C21 34.32 21 68.64 21 104 C38.82 104 56.64 104 75 104 C75 110.27 75 116.54 75 123 C50.25 123 25.5 123 0 123 C0 82.41 0 41.82 0 0 Z " fill="#FFFFFF" transform="translate(1196,283)"/>
<path d="M0 0 C6.93 0 13.86 0 21 0 C21 34.32 21 68.64 21 104 C38.82 104 56.64 104 75 104 C75 110.27 75 116.54 75 123 C50.25 123 25.5 123 0 123 C0 82.41 0 41.82 0 0 Z " fill="#FFFFFF" transform="translate(1109,283)"/>
<path d="M0 0 C6.93 0 13.86 0 21 0 C21 40.59 21 81.18 21 123 C14.07 123 7.14 123 0 123 C0 82.41 0 41.82 0 0 Z " fill="#FFFFFF" transform="translate(1066,283)"/>
<path d="M0 0 C6.93 0 13.86 0 21 0 C21 40.59 21 81.18 21 123 C14.07 123 7.14 123 0 123 C0 82.41 0 41.82 0 0 Z " fill="#FFFFFF" transform="translate(425,283)"/>
<path d="M0 0 C9 0 9 0 11.23999023 2.02514648 C12.01644897 3.43389038 12.01644897 3.43389038 12.80859375 4.87109375 C13.41123047 5.92232422 14.01386719 6.97355469 14.63476562 8.05664062 C15.22966797 9.17232422 15.82457031 10.28800781 16.4375 11.4375 C17.02853516 12.48744141 17.61957031 13.53738281 18.22851562 14.61914062 C20.17021144 18.06943255 22.08437401 21.53516608 24 25 C27.3 30.61 30.6 36.22 34 42 C34.33 28.14 34.66 14.28 35 0 C37.64 0 40.28 0 43 0 C43 18.81 43 37.62 43 57 C39.7 57 36.4 57 33 57 C30.39063571 54.01138649 28.92978799 51.83004567 27.1875 48.375 C26.187038 46.55422564 25.18570175 44.73393145 24.18359375 42.9140625 C23.6716748 41.9540332 23.15975586 40.99400391 22.63232422 40.00488281 C20.42039493 35.93302734 18.05622531 31.95946863 15.67993164 27.98193359 C13.10220192 23.66517381 10.55406389 19.33080399 8 15 C7.67 28.86 7.34 42.72 7 57 C4.69 57 2.38 57 0 57 C0 38.19 0 19.38 0 0 Z " fill="#E3C590" transform="translate(1132,462)"/>
<path d="M0 0 C20 0 20 0 29 3 C33.1878796 7.1878796 35.12779542 10.41612892 35.25 16.3125 C35.1876066 20.58298167 34.43140455 23.39481394 32 27 C27.68421053 31 27.68421053 31 25 31 C28.13725706 37.84205811 31.87348749 44.11028768 36.05249023 50.35205078 C39 54.79855843 39 54.79855843 39 57 C35.47013482 57.69442139 32.50475785 57.90631354 29 57 C25.99385486 53.78767101 24.26395611 50.00837352 22.375 46.0625 C21.36789704 43.99845015 20.3348784 41.94679598 19.2734375 39.91015625 C18.83435059 38.99371338 18.39526367 38.07727051 17.94287109 37.13305664 C15.57233469 34.06624543 15.57233469 34.06624543 8 34 C8 41.59 8 49.18 8 57 C5.36 57 2.72 57 0 57 C0 38.19 0 19.38 0 0 Z M8 7 C8 13.6 8 20.2 8 27 C10.8153125 27.0928125 10.8153125 27.0928125 13.6875 27.1875 C15.27111328 27.23970703 15.27111328 27.23970703 16.88671875 27.29296875 C20.39668177 26.9626711 22.18546576 26.07834824 25 24 C27.20379455 20.74221676 27.11321965 18.14437007 26.5625 14.375 C25.59996923 10.73675476 25.25862766 10.17780651 22 7.9375 C17.06203858 6.61968113 17.06203858 6.61968113 8 7 Z " fill="#E4C590" transform="translate(322,462)"/>
<path d="M0 0 C20 0 20 0 29 3 C33.1878796 7.1878796 35.12779542 10.41612892 35.25 16.3125 C35.1876066 20.58298167 34.43140455 23.39481394 32 27 C27.68421053 31 27.68421053 31 25 31 C28.13725706 37.84205811 31.87348749 44.11028768 36.05249023 50.35205078 C39 54.79855843 39 54.79855843 39 57 C35.47013482 57.69442139 32.50475785 57.90631354 29 57 C25.99385486 53.78767101 24.26395611 50.00837352 22.375 46.0625 C21.36789704 43.99845015 20.3348784 41.94679598 19.2734375 39.91015625 C18.83435059 38.99371338 18.39526367 38.07727051 17.94287109 37.13305664 C15.57233469 34.06624543 15.57233469 34.06624543 8 34 C8 41.59 8 49.18 8 57 C5.36 57 2.72 57 0 57 C0 38.19 0 19.38 0 0 Z M8 7 C8 13.6 8 20.2 8 27 C10.8153125 27.0928125 10.8153125 27.0928125 13.6875 27.1875 C15.27111328 27.23970703 15.27111328 27.23970703 16.88671875 27.29296875 C20.39668177 26.9626711 22.18546576 26.07834824 25 24 C27.20379455 20.74221676 27.11321965 18.14437007 26.5625 14.375 C25.59996923 10.73675476 25.25862766 10.17780651 22 7.9375 C17.06203858 6.61968113 17.06203858 6.61968113 8 7 Z " fill="#E3C590" transform="translate(925,462)"/>
<path d="M0 0 C2.64 0 5.28 0 8 0 C8.01981934 1.24088379 8.03963867 2.48176758 8.06005859 3.76025391 C8.13632081 8.37861901 8.2250063 12.99667752 8.31738281 17.61474609 C8.35558748 19.61077812 8.39045502 21.60687699 8.421875 23.60302734 C8.46771064 26.47778154 8.52567441 29.35207892 8.5859375 32.2265625 C8.59748871 33.11429352 8.60903992 34.00202454 8.62094116 34.91665649 C8.73181179 39.60609631 9.00508183 43.66184462 11 48 C15.57439877 50.39611364 19.95981768 50.40001447 25 50 C28.86497313 48.3195769 30.4236286 46.84838738 32 43 C32.32202416 40.86366045 32.32202416 40.86366045 32.31884766 38.59863281 C32.33871735 37.7380426 32.35858704 36.87745239 32.37905884 35.99078369 C32.39638565 34.61089264 32.39638565 34.61089264 32.4140625 33.203125 C32.43342865 32.25435486 32.4527948 31.30558472 32.4727478 30.32806396 C32.53245659 27.30213367 32.57889433 24.27616516 32.625 21.25 C32.66318777 19.19659813 32.70223997 17.14321214 32.7421875 15.08984375 C32.83815108 10.06002504 32.92221446 5.03013135 33 0 C35.97 0 38.94 0 42 0 C42.04977792 5.24697519 42.0858971 10.4938101 42.10986328 15.7409668 C42.11986411 17.52256671 42.13346916 19.30415044 42.15087891 21.08569336 C42.17538957 23.66003433 42.18654248 26.23415657 42.1953125 28.80859375 C42.20563507 29.59334579 42.21595764 30.37809784 42.22659302 31.18663025 C42.22819012 39.22286512 41.3029144 46.66596336 36 53 C29.07528968 58.22886289 23.45077117 58.5583737 15 58 C9.71716763 57.1239084 6.84632291 55.22316705 3.5625 51 C0.93690091 47.22257134 -0.1267084 44.22123184 -0.11352539 39.62036133 C-0.11344986 38.73967484 -0.11337433 37.85898834 -0.11329651 36.95161438 C-0.10813522 36.00465195 -0.10297394 35.05768951 -0.09765625 34.08203125 C-0.0962413 33.10965012 -0.09482635 32.13726898 -0.09336853 31.13542175 C-0.08776817 28.02774996 -0.07521562 24.92015004 -0.0625 21.8125 C-0.05748505 19.70638125 -0.05292213 17.60026137 -0.04882812 15.49414062 C-0.03779862 10.32939936 -0.02053375 5.16471187 0 0 Z " fill="#E3C590" transform="translate(814,462)"/>
<path d="M0 0 C6.6 0 13.2 0 20 0 C19.5354564 14.05855644 18.93593313 28.10474793 18.13104248 42.14776611 C18.04375985 43.67287461 17.95786046 45.1980629 17.87335205 46.72332764 C17.7532942 48.8770304 17.62755566 51.03032358 17.5 53.18359375 C17.4278125 54.42681396 17.355625 55.67003418 17.28125 56.95092773 C17 60 17 60 16 63 C11.71 63 7.42 63 3 63 C2.56708757 56.27834366 2.14008321 49.55634586 1.71826172 42.83398438 C1.57432921 40.55295995 1.42885619 38.27203213 1.28173828 35.99121094 C0.50764398 23.97431839 -0.20859388 12.04629637 0 0 Z " fill="#FFFFFF" transform="translate(690,272)"/>
<path d="M0 0 C1.134375 0.020625 2.26875 0.04125 3.4375 0.0625 C6.44055271 6.58452381 9.06564759 13.19751738 11.546875 19.93359375 C12.10438446 21.43890404 12.10438446 21.43890404 12.67315674 22.97462463 C13.45105034 25.0775123 14.22745906 27.18094981 15.00244141 29.28491211 C16.19359955 32.51654819 17.39143413 35.74565639 18.58984375 38.97460938 C19.3467541 41.02328978 20.10327851 43.07211283 20.859375 45.12109375 C21.21868103 46.08873154 21.57798706 47.05636932 21.94818115 48.05332947 C22.27562317 48.94508377 22.60306519 49.83683807 22.94042969 50.75561523 C23.23036804 51.54121323 23.5203064 52.32681122 23.81903076 53.13621521 C24.4375 55.0625 24.4375 55.0625 24.4375 57.0625 C21.4675 57.0625 18.4975 57.0625 15.4375 57.0625 C14.59830602 54.79367913 13.76598276 52.52272973 12.9375 50.25 C12.69902344 49.60740234 12.46054688 48.96480469 12.21484375 48.30273438 C11.16681254 45.41316261 10.4375 43.16173939 10.4375 40.0625 C3.5075 40.0625 -3.4225 40.0625 -10.5625 40.0625 C-11.0575 42.5375 -11.0575 42.5375 -11.5625 45.0625 C-12.22262059 47.17541609 -12.91118701 49.27961349 -13.625 51.375 C-14.16833984 52.97794922 -14.16833984 52.97794922 -14.72265625 54.61328125 C-14.99980469 55.42152344 -15.27695313 56.22976563 -15.5625 57.0625 C-18.5325 57.0625 -21.5025 57.0625 -24.5625 57.0625 C-22.49785583 49.9482179 -20.16371148 43.00190055 -17.5859375 36.05859375 C-17.21522125 35.05409683 -16.844505 34.04959991 -16.46255493 33.0146637 C-15.68584059 30.9124621 -14.90761342 28.81081888 -14.12792969 26.7097168 C-12.92982881 23.47931642 -11.73805486 20.24662985 -10.546875 17.01367188 C-9.78943628 14.96600753 -9.03163694 12.91847654 -8.2734375 10.87109375 C-7.9161557 9.90143173 -7.5588739 8.93176971 -7.19076538 7.932724 C-6.8601712 7.04412186 -6.52957703 6.15551971 -6.18896484 5.23999023 C-5.75286392 4.06278664 -5.75286392 4.06278664 -5.30795288 2.86180115 C-3.97684358 -0.3511001 -3.84400739 0.06743873 0 0 Z M-0.5625 10.0625 C-1.73402378 13.51920732 -2.89889077 16.97812122 -4.0625 20.4375 C-4.56330078 21.91476562 -4.56330078 21.91476562 -5.07421875 23.421875 C-5.39003906 24.36289062 -5.70585938 25.30390625 -6.03125 26.2734375 C-6.32451172 27.14274902 -6.61777344 28.01206055 -6.91992188 28.90771484 C-7.65775788 31.00717299 -7.65775788 31.00717299 -7.5625 33.0625 C-2.6125 33.0625 2.3375 33.0625 7.4375 33.0625 C5.14511808 25.38302056 2.8019854 17.72007199 0.4375 10.0625 C0.1075 10.0625 -0.2225 10.0625 -0.5625 10.0625 Z " fill="#E4C591" transform="translate(1044.5625,461.9375)"/>
<path d="M0 0 C2.64 0 5.28 0 8 0 C11.01610864 7.99398746 14.01290581 15.99512956 17 24 C17.24564697 24.657724 17.49129395 25.315448 17.74438477 25.99310303 C19.27506832 30.09304309 20.79972599 34.19515087 22.31723022 38.29998779 C22.81358831 39.64034364 23.31165298 40.98006875 23.81143188 42.31915283 C24.51563701 44.20714169 25.21304205 46.09766268 25.91015625 47.98828125 C26.31371338 49.07665283 26.71727051 50.16502441 27.13305664 51.28637695 C28 54 28 54 28 57 C25.36 57 22.72 57 20 57 C18.02 51.72 16.04 46.44 14 41 C7.4 41 0.8 41 -6 41 C-7.98 46.28 -9.96 51.56 -12 57 C-14.64 57 -17.28 57 -20 57 C-18.63069678 50.09435188 -16.59574517 43.71243517 -14.12109375 37.12890625 C-13.74896255 36.12536606 -13.37683136 35.12182587 -12.99342346 34.08787537 C-11.81359178 30.9106817 -10.62553991 27.73663218 -9.4375 24.5625 C-8.63555451 22.40448752 -7.83411718 20.24628612 -7.03320312 18.08789062 C-5.57250414 14.15979445 -4.1115935 10.23178788 -2.64233398 6.30688477 C-2.34858383 5.52128677 -2.05483368 4.73568878 -1.75218201 3.92628479 C-1 2 -1 2 0 0 Z M3 12 C1.99263372 14.93502595 0.99539496 17.87339461 0 20.8125 C-0.42925781 22.06256836 -0.42925781 22.06256836 -0.8671875 23.33789062 C-1.13789062 24.14033203 -1.40859375 24.94277344 -1.6875 25.76953125 C-2.06455078 26.87711792 -2.06455078 26.87711792 -2.44921875 28.00708008 C-3.13319151 30.13732879 -3.13319151 30.13732879 -3 33 C1.62 33 6.24 33 11 33 C9.55613874 25.78069368 7.42211826 18.94889267 5 12 C4.34 12 3.68 12 3 12 Z " fill="#E4C490" transform="translate(724,462)"/>
<path d="M0 0 C9.9 0 19.8 0 30 0 C30 2.31 30 4.62 30 7 C22.74 7 15.48 7 8 7 C8 12.61 8 18.22 8 24 C14.6 24 21.2 24 28 24 C28 26.31 28 28.62 28 31 C21.4 31 14.8 31 8 31 C8 37.27 8 43.54 8 50 C15.26 50 22.52 50 30 50 C30 52.31 30 54.62 30 57 C20.1 57 10.2 57 0 57 C0 38.19 0 19.38 0 0 Z " fill="#E3C58F" transform="translate(425,462)"/>
<path d="M0 0 C-0.66 2.31 -1.32 4.62 -2 7 C-5.52939425 6.49580082 -9.01223679 5.99737783 -12.5 5.25 C-17.1222397 4.91984002 -19.06066255 5.55761078 -23 8 C-24.31964794 11.37243363 -24.3809694 13.06199565 -23.01953125 16.4140625 C-20.15963937 20.07605171 -16.70345093 21.53209217 -12.5625 23.5 C-3.18787599 27.97766851 -3.18787599 27.97766851 0 33 C1.45083502 37.35250507 1.85342929 41.58113755 0.31640625 45.9375 C-2.43217221 51.22936889 -6.32082084 54.10694028 -12 56 C-14.43526603 56.12162188 -16.87422867 56.17544129 -19.3125 56.1875 C-20.60800781 56.20167969 -21.90351562 56.21585938 -23.23828125 56.23046875 C-26.8662588 56.00819391 -29.6332728 55.32059222 -33 54 C-33 51.36 -33 48.72 -33 46 C-31.9275 46.33 -30.855 46.66 -29.75 47 C-24.19924515 48.35553193 -18.67254137 48.78017761 -13 48 C-9.53215473 46.20299181 -9.53215473 46.20299181 -8 43 C-7.42645858 39.42783304 -7.42645858 39.42783304 -9 36 C-12.14847511 33.13397385 -16.06355655 31.47209133 -19.8359375 29.5703125 C-29.68373762 24.47480198 -29.68373762 24.47480198 -32 19 C-33.10885859 14.18708186 -33.44913551 10.34740652 -31.875 5.625 C-23.73833104 -5.76633655 -11.77914294 -3.57847381 0 0 Z " fill="#E3C590" transform="translate(552,464)"/>
<path d="M0 0 C13.53 0 27.06 0 41 0 C41 2.31 41 4.62 41 7 C35.39 7 29.78 7 24 7 C24 23.5 24 40 24 57 C21.36 57 18.72 57 16 57 C16 40.5 16 24 16 7 C10.72 7 5.44 7 0 7 C0 4.69 0 2.38 0 0 Z " fill="#E4C48F" transform="translate(612,462)"/>
<path d="M0 0 C13.2 0 26.4 0 40 0 C40 2.31 40 4.62 40 7 C34.72 7 29.44 7 24 7 C24 23.5 24 40 24 57 C21.36 57 18.72 57 16 57 C16 40.5 16 24 16 7 C10.72 7 5.44 7 0 7 C0 4.69 0 2.38 0 0 Z " fill="#E3C48F" transform="translate(1238,462)"/>
</svg>
